<svg width="347" height="89" viewBox="0 0 347 89" fill="none" xmlns="http://www.w3.org/2000/svg">
<path d="M36.6985 84.3347H36.5203C12.3813 84.3347 0 64.6865 0 45.0383C0.267222 18.3024 18.8837 4.75504 35.8968 4.75504C48.5453 4.75504 60.214 12.8296 60.214 29.3377C60.214 36.874 57.4527 45.0383 48.8125 45.0383C47.5655 45.0383 46.2294 44.8589 44.7151 44.5C39.727 43.3337 40.3505 33.6442 37.0548 33.6442C33.8481 33.7339 27.2566 35.6179 27.2566 43.6925V44.7692C27.2566 53.0232 32.1557 57.1502 36.164 57.1502C38.3018 57.1502 40.2614 55.8942 40.8849 53.2923C41.6866 50.3317 45.3386 48.5373 49.2579 48.5373C54.246 48.5373 59.6795 51.3185 60.6593 57.9577C60.8375 59.124 60.9266 60.2006 60.9266 61.2772C60.9266 75.0937 47.7436 84.3347 36.6985 84.3347Z" fill="#DD83F9"/>
<path d="M111.896 89C102.632 89 93.1901 70.6079 88.291 58.2268C88.3801 61.1875 88.5583 64.3276 88.5583 67.4677C88.5583 76.619 87.2222 85.3216 77.6913 86.6673C77.1568 86.7571 76.6224 86.7571 76.177 86.7571C66.8242 86.7571 66.0226 72.4919 66.0226 56.3427V46.2944C66.0226 3.67843 79.829 0.986893 94.9716 0.0897166L97.0203 0C111.628 0 129.621 9.51008 129.621 30.6835C129.621 41.9879 124.01 51.9466 115.013 56.9708C117.953 63.251 121.07 70.7873 121.07 77.247C121.07 81.1048 119.912 84.6038 116.795 87.1159C115.191 88.4617 113.588 89 111.896 89ZM92.2994 39.6552C93.6355 39.6552 95.2388 39.2067 97.3766 38.2198C99.9597 37.0534 101.919 33.4647 101.919 30.0554C101.919 26.0181 99.4253 22.1603 92.4775 22.0706C88.5583 22.0706 88.0238 24.1341 87.9348 31.3115C87.9348 36.1562 88.6473 39.6552 92.2994 39.6552Z" fill="#DD83F9"/>
<path d="M147.101 84.7833C137.035 84.7833 131.958 72.8508 131.958 58.1371C131.958 34.5413 144.874 4.5756 171.329 4.30645C194.844 4.30645 201.97 40.4627 201.97 60.9183C201.97 66.122 201.525 70.3387 200.723 72.6714C198.318 79.8488 194.043 83.4375 186.828 83.4375C179.969 83.4375 176.228 81.6431 174.892 77.9647C171.329 67.8266 170.438 66.122 168.746 66.122C167.855 66.122 166.875 66.5706 165.183 66.5706C148.348 66.5706 160.907 83.2581 148.704 84.6936L147.101 84.7833ZM164.826 49.9728C168.478 49.9728 170.26 49.255 170.26 45.6663C170.26 44.0514 169.904 41.7188 169.102 38.5786C168.033 34.5413 166.43 32.8367 164.916 32.8367C161.174 32.8367 158.858 43.0645 158.858 46.3841C158.858 49.255 160.551 49.9728 164.826 49.9728Z" fill="#DD83F9"/>
<path d="M244.089 85.6804C226.452 85.6804 218.436 66.3911 211.132 50.3317C206.678 40.5524 203.026 29.6966 203.026 20.9042C203.026 12.7399 206.144 6.36996 214.516 4.12702C216.476 3.58871 218.258 3.40927 219.861 3.40927C242.486 3.40927 236.785 49.9728 244 49.9728C247.028 49.9728 247.563 3.58871 267.159 3.58871C268.139 3.58871 269.119 3.67843 270.099 3.94758C277.135 5.47278 279.451 11.3044 279.451 18.2127C279.451 25.3004 276.957 33.7339 274.552 39.9244C266.981 59.5726 259.232 85.6804 244.089 85.6804Z" fill="#DD83F9"/>
<path d="M329.274 89C320.011 89 310.569 70.6079 305.67 58.2268C305.759 61.1875 305.937 64.3276 305.937 67.4677C305.937 76.619 304.601 85.3216 295.07 86.6673C294.535 86.7571 294.001 86.7571 293.556 86.7571C284.203 86.7571 283.401 72.4919 283.401 56.3427V46.2944C283.401 3.67843 297.208 0.986893 312.35 0.0897166L314.399 0C329.007 0 347 9.51008 347 30.6835C347 41.9879 341.388 51.9466 332.392 56.9708C335.331 63.251 338.449 70.7873 338.449 77.247C338.449 81.1048 337.291 84.6038 334.173 87.1159C332.57 88.4617 330.967 89 329.274 89ZM309.678 39.6552C311.014 39.6552 312.617 39.2067 314.755 38.2198C317.338 37.0534 319.298 33.4647 319.298 30.0554C319.298 26.0181 316.804 22.1603 309.856 22.0706C305.937 22.0706 305.402 24.1341 305.313 31.3115C305.313 36.1562 306.026 39.6552 309.678 39.6552Z" fill="#DD83F9"/>
</svg>
