<svg width="64" height="64" viewBox="0 0 64 64" fill="none" xmlns="http://www.w3.org/2000/svg">
<path d="M36.5029 60H36.3743C18.9415 60 10 45.9267 10 31.8534C10.193 12.7035 23.6374 3 35.924 3C45.0585 3 53.4854 8.78354 53.4854 20.6077C53.4854 26.0056 51.4912 31.8534 45.2515 31.8534C44.3509 31.8534 43.386 31.7249 42.2924 31.4679C38.6901 30.6325 39.1403 23.6922 36.7602 23.6922C34.4444 23.7565 29.6842 25.106 29.6842 30.8895V31.6607C29.6842 37.5727 33.2222 40.5287 36.117 40.5287C37.6608 40.5287 39.076 39.6291 39.5263 37.7655C40.1053 35.6449 42.7427 34.3596 45.5731 34.3596C49.1754 34.3596 53.0994 36.3517 53.807 41.1071C53.9357 41.9425 54 42.7136 54 43.4848C54 53.3811 44.4795 60 36.5029 60Z" fill="#DD83F9"/>
</svg>
